<?xml version="1.0" encoding="utf-8"?>
<?xml-stylesheet type="text/xsl" href="rss1.xsl"?>
<rss version="2.0" xmlns:atom="http://www.w3.org/2005/Atom" xmlns:content="http://purl.org/rss/1.0/modules/content/" xmlns:dc="http://purl.org/dc/elements/1.1/" xmlns:media="http://search.yahoo.com/mrss/">
<channel>
 <title>Getty</title>
 <link>http://www.gettyimg.com/</link>
 <atom:link href="http://www.gettyimg.com/" rel="self" type="application/rss+xml" />

 
                <item>
                <title><![CDATA[【Singles (lossless)】WAV - Lindsay Lohan - Bossy (Club Remixes)]]></title>
                <link><![CDATA[https://sharemania.us/threads/lindsay-lohan-bossy-club-remixes.248743/]]></link>
                <description><![CDATA[<article>
<blockquote class="messageText SelectQuoteContainer ugc baseHtml">
aHR0cHM6Ly9tZWdhLm56L2ZpbGUvRHVZVFJKeUojN293RGlpSGJIOWk5aGlZbFJxcGJ0VVVSZjRMa0p1Z1RpMnp2Y2N5MFdnWSAKcGFzc3dvcmQ6IG1pYXU=
<div class="messageTextEndMarker">&nbsp;</div>
</blockquote>
</article>]]></description>
                <author><![CDATA[highlanderthecat]]></author>
                </item>

                
                <item>
                <title><![CDATA[【Requests】[REQ AUD] - Various – Universal Unmastered: Urban Sampler]]></title>
                <link><![CDATA[https://sharemania.us/threads/various-%E2%80%93-universal-unmastered-urban-sampler.248741/]]></link>
                <description><![CDATA[<article>
<blockquote class="messageText SelectQuoteContainer ugc baseHtml">
Hi guys, can anyone get this for me in high quality please? <br>
<br>
<a href="https://www.discogs.com/release/14909261-Various-Universal-Unmastered-Urban-Sampler" target="_blank" class="externalLink" rel="nofollow">https://www.discogs.com/release/14909261-Various-Universal-Unmastered-Urban-Sampler</a>
<div class="messageTextEndMarker">&nbsp;</div>
</blockquote>
</article>]]></description>
                <author><![CDATA[DaydreamButterfly]]></author>
                </item>

                
                <item>
                <title><![CDATA[【Apple Music】WEB-RiP - The Hitmen - Make You Mine (feat. Taia Dya) (1080p)]]></title>
                <link><![CDATA[https://sharemania.us/threads/the-hitmen-make-you-mine-feat-taia-dya-1080p.248742/]]></link>
                <description><![CDATA[<article>
<blockquote class="messageText SelectQuoteContainer ugc baseHtml">
<img src="https://i.postimg.cc/2SbMnhFr/The-Hitmen-Make-You-Mine-feat-Taia-Dya-mp4.jpg" class="bbCodeImage LbImage" alt="[​IMG]" data-url="https://i.postimg.cc/2SbMnhFr/The-Hitmen-Make-You-Mine-feat-Taia-Dya-mp4.jpg" style=""><br>
<br>
<div class="bbCodeBlock bbCodeCode">
<div class="type">Code:</div>
<pre>General
Complete name                  : G:\Новая папка\The Hitmen - Make You Mine (feat. Taia Dya).mp4
Format                         : MPEG-4
Format profile                 : Base Media
Codec ID                       : isom (isom/iso2/avc1/mp41)
File size                      : 182 MiB
Duration                       : 2 min 34 s
Overall bit rate               : 9 885 kb/s
Frame rate                     : 25.000 FPS
Movie name                     : Make You Mine (feat. Taia Dya)
Performer                      : The Hitmen
Genre                          : Dance
ContentType                    : Music Video
Recorded date                  : 2022-06-19 07:00:00 UTC
Writing application            : Lavf56.30.100
Copyright                      : ℗ 2022 Kontor Records GmbH / Drop Out

Video
ID                             : 1
Format                         : AVC
Format/Info                    : Advanced Video Codec
Format profile                 : High@L4
Format settings                : CABAC / 5 Ref Frames
Format settings, CABAC         : Yes
Format settings, Reference fra : 5 frames
Format settings, Slice count   : 8 slices per frame
Codec ID                       : avc1
Codec ID/Info                  : Advanced Video Coding
Duration                       : 2 min 34 s
Bit rate                       : 9 621 kb/s
Width                          : 1 920 pixels
Height                         : 818 pixels
Display aspect ratio           : 2.35:1
Frame rate mode                : Constant
Frame rate                     : 25.000 FPS
Color space                    : YUV
Chroma subsampling             : 4:2:0
Bit depth                      : 8 bits
Scan type                      : Progressive
Bits/(Pixel*Frame)             : 0.245
Stream size                    : 177 MiB (97%)
Color range                    : Limited
Color primaries                : BT.709
Transfer characteristics       : BT.709
Matrix coefficients            : BT.709
Codec configuration box        : avcC

Audio
ID                             : 2
Format                         : AAC LC
Format/Info                    : Advanced Audio Codec Low Complexity
Codec ID                       : mp4a-40-2
Duration                       : 2 min 34 s
Bit rate mode                  : Constant
Bit rate                       : 265 kb/s
Channel(s)                     : 2 channels
Channel layout                 : L R
Sampling rate                  : 48.0 kHz
Frame rate                     : 46.875 FPS (1024 SPF)
Compression mode               : Lossy
Stream size                    : 4.79 MiB (3%)
Default                        : Yes
Alternate group                : 1

</pre>
</div>
<div class="bbCodeBlock bbCodeVfcHH HiddenContent">
<div class="attribution type">Hidden Content:</div>
<blockquote>You must either reply or click 'Like' to see the hidden information contained here.</blockquote>
</div>
<div class="messageTextEndMarker">&nbsp;</div>
</blockquote>
</article>]]></description>
                <author><![CDATA[vitalya3]]></author>
                </item>

                
                <item>
                <title><![CDATA[【Albums (lossless)】FLAC - Lee Seung Yoon - PRE-RELEASE 3RD ALBUM [YEOK SEONG]]]></title>
                <link><![CDATA[https://sharemania.us/threads/lee-seung-yoon-pre-release-3rd-album-yeok-seong.248744/]]></link>
                <description><![CDATA[<article>
<blockquote class="messageText SelectQuoteContainer ugc baseHtml">
thanks
<div class="messageTextEndMarker">&nbsp;</div>
</blockquote>
</article>]]></description>
                <author><![CDATA[XRB80]]></author>
                </item>

                </channel></rss>